PathFileType	4	(X/Y/Z)	C:\Git\research_data\torsion_deformities_healthy_kinematics\simulations\P03\pre\Static01\markers.trc
DataRate	CameraRate	NumFrames	NumMarkers	Units	OrigDataRate	OrigDataStartFrame	OrigNumFrames
150.000000	150.000000	4	104	mm	150.000000	56	150
Frame#	Time	LFHD			LBHD			RFHD			RBHD			C7			T10			CLAV			STRN			RBAK			LSHO			LUPA			LELB			LFRA			LWRB			LWRA			LFIN			RSHO			RUPA			RELB			RFRA			RWRB			RWRA			RFIN			SACR			LASI			RASI			LT1			LT2			LT3			LS1			LS2			LS3			LHEE			LTOE			RT1			RT2			RT3			RS1			RS2			RS3			RHEE			RTOE			LKNE			LKNM			LANK			LANM			RKNM			RKNE			RANM			RANK			SACO			SACA			SACL			SACP			LKJC			RKJC			LAJC			RAJC			LMMA			RMMA			LTHI			RTHI			LTIB			RTIB			funktRKJC			funktLKJC			funktRHIP			funktLHIP			LHJC			RHJC			LPelvisAngles			RPelvisAngles			LFootProgressAngles			RFootProgressAngles			LHipAngles			RHipAngles			LKneeAngles			RKneeAngles			LAnkleAngles			RAnkleAngles			LFFootAngles			RFFootAngles			LAbsAnkleAngle			RAbsAnkleAngle			RNeckAngles			LNeckAngles			RSpineAngles			LSpineAngles			LShoulderAngles			LElbowAngles			LWristAngles			RShoulderAngles			RElbowAngles			RWristAngles			RThoraxAngles			LThoraxAngles			RHeadAngles			LHeadAngles			LNormalisedGRF			RNormalisedGRF			LGroundReactionForce			RGroundReactionForce			LGRF			RGRF			
		X1	Y1	Z1	X2	Y2	Z2	X3	Y3	Z3	X4	Y4	Z4	X5	Y5	Z5	X6	Y6	Z6	X7	Y7	Z7	X8	Y8	Z8	X9	Y9	Z9	X10	Y10	Z10	X11	Y11	Z11	X12	Y12	Z12	X13	Y13	Z13	X14	Y14	Z14	X15	Y15	Z15	X16	Y16	Z16	X17	Y17	Z17	X18	Y18	Z18	X19	Y19	Z19	X20	Y20	Z20	X21	Y21	Z21	X22	Y22	Z22	X23	Y23	Z23	X24	Y24	Z24	X25	Y25	Z25	X26	Y26	Z26	X27	Y27	Z27	X28	Y28	Z28	X29	Y29	Z29	X30	Y30	Z30	X31	Y31	Z31	X32	Y32	Z32	X33	Y33	Z33	X34	Y34	Z34	X35	Y35	Z35	X36	Y36	Z36	X37	Y37	Z37	X38	Y38	Z38	X39	Y39	Z39	X40	Y40	Z40	X41	Y41	Z41	X42	Y42	Z42	X43	Y43	Z43	X44	Y44	Z44	X45	Y45	Z45	X46	Y46	Z46	X47	Y47	Z47	X48	Y48	Z48	X49	Y49	Z49	X50	Y50	Z50	X51	Y51	Z51	X52	Y52	Z52	X53	Y53	Z53	X54	Y54	Z54	X55	Y55	Z55	X56	Y56	Z56	X57	Y57	Z57	X58	Y58	Z58	X59	Y59	Z59	X60	Y60	Z60	X61	Y61	Z61	X62	Y62	Z62	X63	Y63	Z63	X64	Y64	Z64	X65	Y65	Z65	X66	Y66	Z66	X67	Y67	Z67	X68	Y68	Z68	X69	Y69	Z69	X70	Y70	Z70	X71	Y71	Z71	X72	Y72	Z72	X73	Y73	Z73	X74	Y74	Z74	X75	Y75	Z75	X76	Y76	Z76	X77	Y77	Z77	X78	Y78	Z78	X79	Y79	Z79	X80	Y80	Z80	X81	Y81	Z81	X82	Y82	Z82	X83	Y83	Z83	X84	Y84	Z84	X85	Y85	Z85	X86	Y86	Z86	X87	Y87	Z87	X88	Y88	Z88	X89	Y89	Z89	X90	Y90	Z90	X91	Y91	Z91	X92	Y92	Z92	X93	Y93	Z93	X94	Y94	Z94	X95	Y95	Z95	X96	Y96	Z96	X97	Y97	Z97	X98	Y98	Z98	X99	Y99	Z99	X100	Y100	Z100	X101	Y101	Z101	X102	Y102	Z102	X103	Y103	Z103	X104	Y104	Z104	

57	0.3733333333333334	384.2592468261717	1440.426879882812	-1133.674682617188	364.1586608886717	1420.724609375	-994.6753540039062	500.263214111328	1441.113159179688	-1140.964721679688	512.8825683593748	1420.572143554688	-988.436767578125	444.1314086914061	1274.638305664062	-964.7698974609375	446.2188110351561	1095.69580078125	-914.51123046875	428.3292236328124	1212.424072265625	-1095.463500976562	423.9000244140624	1159.267333984375	-1127.656005859375	543.1049194335935	1178.167846679688	-933.58837890625	312.4113464355468	1262.749145507812	-1037.72607421875	219.2813262939452	1045.816772460938	-975.5012817382812	190.9500885009764	972.227294921875	-965.3950805664062	146.8727722167968	889.757080078125	-979.7745361328125	90.60103607177724	769.6307373046875	-1023.32177734375	124.9625930786132	775.469970703125	-1081.426025390625	78.44338226318348	717.567138671875	-1110.152099609375	560.3529052734373	1251.660278320312	-1061.656982421875	650.5299072265623	1078.081420898438	-1053.521606445312	704.856994628906	959.4385375976562	-1032.188720703125	758.0266723632811	831.4429321289062	-1093.886596679688	778.3288574218749	751.5119018554688	-1106.207885742188	726.1043701171874	747.6915283203125	-1148.718627929688	771.8322753906249	701.4266967773438	-1190.744995117188	431.1775512695311	875.5927124023438	-915.2464599609375	279.1224060058593	870.8402099609375	-1070.88720703125	521.9980468749999	878.9362182617188	-1123.509399414062	244.1451568603515	586.3381958007812	-1127.023315429688	232.2307128906249	474.5754089355469	-1078.226928710938	277.1607666015624	531.9418334960938	-1202.057861328125	282.8193664550781	217.2423095703125	-1032.87890625	342.1801147460937	148.2585601806641	-950.18701171875	254.5033874511718	131.9574127197266	-1062.23974609375	367.7219238281249	41.72122192382815	-973.5663452148438	262.3922729492187	41.39055252075197	-1083.31396484375	593.1907958984374	607.9722900390625	-1132.126831054688	587.0912475585936	509.9631652832032	-1055.389282226562	583.2769775390624	534.8223876953125	-1197.232421875	587.6153564453124	266.7814636230469	-1088.603759765625	562.6644287109374	216.8336639404297	-981.3734741210938	582.6525878906249	176.588623046875	-1116.5390625	500.2733154296874	44.91666793823245	-981.7987670898438	570.6051025390624	41.72431182861332	-1123.36474609375	268.6977233886718	433.2496032714844	-1147.392456054688	368.1803283691406	421.7906799316406	-1163.158813476562	304.6915283203124	49.61894607543947	-994.208251953125	356.9154968261718	47.21725082397463	-1044.770141601562	466.6682739257812	424.7230224609376	-1164.105712890625	569.2487792968749	440.1756896972657	-1164.17626953125	490.7891540527343	52.91444396972659	-1062.639404296875	552.3297729492186	47.5625038146973	-1018.999267578125	425.1075134277343	875.5075073242188	-983.806396484375	423.880157470703	875.4765014648438	-989.4760131835938	419.4410400390624	875.318603515625	-982.5786743164062	423.1957092285155	933.4860229492188	-983.7094116210938	318.4390258789062	427.5201416015625	-1155.275634765625	517.9584960937499	432.4493713378907	-1164.140991210938	330.8035278320312	48.41809844970705	-1019.489196777344	521.5594482421874	50.23847579956058	-1040.8193359375	356.9154968261718	47.21725082397463	-1044.770141601562	490.7891540527343	52.91444396972659	-1062.639404296875	225.9892272949218	612.0244750976562	-1083.863159179688	603.4073486328124	624.5294799804688	-1116.336791992188	242.4723052978515	244.1720123291016	-1008.794555664062	613.8712768554686	243.6969451904297	-1039.074951171875	0	0	0	0	0	0	0	0	0	0	0	0	355.6588439941405	783.0814819335938	-1043.690185546875	469.1278076171874	786.0397338867188	-1067.705810546875	-1.888401269912719	-12.22152805328369	-0.09603653848171223	1.888401269912719	12.22152805328369	-0.09603653848171245	13.10043811798096	-43.84768295288086	0.1759590953588478	8.936753273010256	-26.41250991821289	1.327469944953918	-3.722992658615111	5.659115791320801	18.53981018066406	-8.804506301879883	-10.1481990814209	13.58205509185791	2.280546426773076	-33.90076446533203	37.76538467407227	7.0883321762085	-30.78269195556641	33.11499404907227	1.260592341423036	-2.53560471534729	15.21858310699463	-0.455307781696319	5.333775520324707	14.61285209655762	-3.534639901530225e-15	-3.180554718589511e-15	7.205944333935198e-16	1.018771418408951e-15	1.590277359294755e-15	-1.789061910092591e-15	9.213768549172784e-16	0	15.04722595214844	8.893092011720576e-16	0	14.52352142333984	-0.347155034542085	7.834171295166016	-12.3209753036499	0.3471550345420835	-7.834171295166016	-12.3209753036499	2.95367956161499	5.885318756103516	4.246724128723145	-2.953679561614989	-5.885318756103516	4.246724128723145	19.1143741607666	-11.83851432800293	-9.449333190917971	7.639933382710382e-16	-1.04004142537778e-12	38.44815826416016	-12.73701095581055	128.7548980712891	16.09679985046387	24.57244300842285	0.4236935377120987	-8.174415588378908	3.017640392040491e-15	4.868820194542068e-32	36.29620742797852	-0.2307689636945794	132.6333618164062	19.25895309448242	-0.5763307809829714	6.393646240234375	4.450819969177246	0.5763307809829719	-6.393646240234375	4.450819969177246	0.08333909511566219	-1.456211566925049	7.857487201690674	-0.08333909511566122	1.456211566925049	7.857487201690674	0	0	0	0	0	0	0	0	0	0	0	0	0	0	0	0	0	0	
58	0.38	384.3290405273436	1440.3857421875	-1133.807983398438	364.2039184570311	1420.701171875	-994.7954711914062	500.3327026367186	1441.087646484375	-1141.082397460938	512.9227905273435	1420.576538085938	-988.5155639648438	444.1944274902343	1274.654541015625	-964.8682861328125	446.2563476562499	1095.732421875	-914.520263671875	428.3930664062499	1212.379150390625	-1095.531372070312	423.9659118652343	1159.209838867188	-1127.688232421875	543.1480712890623	1178.185302734375	-933.6170043945312	312.4832153320311	1262.745971679688	-1037.840698242188	219.2850952148436	1045.863525390625	-975.556396484375	190.9459228515624	972.2901000976562	-965.4160766601562	146.852813720703	889.8291015625	-979.768798828125	90.55467987060537	769.6967163085938	-1023.26513671875	125.008689880371	775.4730834960938	-1081.382568359375	78.51073455810536	717.5479125976562	-1110.096923828125	560.4130859374998	1251.644287109375	-1061.697265625	650.5715332031248	1078.057495117188	-1053.578979492188	704.8993530273435	959.4117431640625	-1032.227783203125	758.0614624023436	831.4114379882812	-1093.927124023438	778.3359374999999	751.4886474609375	-1106.218872070312	726.1199951171874	747.657958984375	-1148.742065429688	771.8323974609374	701.3781127929688	-1190.76416015625	431.2098693847655	875.5889282226562	-915.199951171875	279.1583557128905	870.8583374023438	-1070.8466796875	522.0429077148436	878.9182739257812	-1123.447143554688	244.1695251464843	586.3477783203125	-1126.985229492188	232.2502136230468	474.5856018066406	-1078.194702148438	277.1818847656249	531.9515991210938	-1202.0244140625	282.8385620117187	217.2542724609375	-1032.861450195312	342.1965026855468	148.2608032226563	-950.181640625	254.5110626220703	131.9737091064453	-1062.237670898438	367.7291870117187	41.72191619873049	-973.5774536132812	262.4004821777343	41.38960647583009	-1083.315185546875	593.1880493164061	607.95947265625	-1132.119995117188	587.0958862304686	509.9432373046876	-1055.390258789062	583.2464599609374	534.8212890625	-1197.23095703125	587.6106567382811	266.7770385742188	-1088.611938476562	562.6768188476561	216.8265380859375	-981.3871459960938	582.6292114257811	176.584945678711	-1116.563598632812	500.2756347656249	44.91871261596683	-981.7940063476562	570.5931396484374	41.72675323486332	-1123.37548828125	268.6587829589843	433.2916870117188	-1147.449951171875	368.2063293457031	421.8054809570312	-1163.14306640625	304.6917114257812	49.62167739868166	-994.2036743164062	356.9206237792968	47.21797180175783	-1044.771484375	466.6469116210937	424.7291870117188	-1164.081787109375	569.2244873046874	440.1668701171876	-1164.19140625	490.7798461914062	52.91287231445315	-1062.640869140625	552.3267211914061	47.56338882446293	-1018.998291015625	425.1375122070311	875.5042724609375	-983.7527465820312	423.910675048828	875.4735107421875	-989.4224853515625	419.4709167480468	875.3162841796875	-982.5255737304688	423.2349853515624	933.483154296875	-983.65576171875	318.4325561523437	427.548583984375	-1155.296508789062	517.9356689453124	432.4480285644532	-1164.136596679688	330.8061523437499	48.41982650756838	-1019.487609863281	521.5532836914061	50.2381286621094	-1040.819580078125	356.9206237792968	47.21797180175783	-1044.771484375	490.7798461914062	52.91287231445315	-1062.640869140625	225.9858398437499	612.0772705078125	-1083.938232421875	603.4082641601561	624.5201416015625	-1116.344482421875	242.464859008789	244.188720703125	-1008.796569824219	613.8572387695311	243.6990661621094	-1039.07470703125	0	0	0	0	0	0	0	0	0	0	0	0	355.680694580078	783.08837890625	-1043.642700195312	469.1523132324218	786.0296630859375	-1067.647827148438	-1.879903674125671	-12.21623516082764	-0.09574452787637699	1.879903674125671	12.21623516082764	-0.09574452787637722	13.09824943542481	-43.84412002563477	0.1782994270324699	8.938224792480471	-26.4063549041748	1.325224995613098	-3.718631267547607	5.700911998748779	18.5494499206543	-8.80598258972168	-10.12064361572266	13.59150314331055	2.31366872787476	-33.9379997253418	37.77718353271484	7.090382575988773	-30.80238342285156	33.12051010131836	1.25950849056244	-2.531253576278687	15.21969509124756	-0.4566936492919916	5.338914394378662	14.61421298980713	-3.137070588176316e-15	1.590277359294755e-15	7.454425287130307e-17	-1.242404236579864e-16	-7.607531857873208e-33	1.987846699118444e-16	9.21571838192804e-16	0	15.05041027069092	8.893036535796122e-16	0	14.52343082427979	-0.3610138297081006	7.842341423034668	-12.34142875671387	0.3610138297080991	-7.842341423034668	-12.34142875671387	2.954005002975464	5.885173797607422	4.277621746063232	-2.954005002975463	-5.885173797607422	4.277621746063232	19.12330627441406	-11.82205295562744	-9.440211296081545	7.638611303838145e-16	-2.754360324888627e-12	38.44599914550781	-12.77477359771729	128.7943572998047	16.08819198608398	24.57638359069824	0.4232661426067367	-8.14229202270508	5.402788277882619e-15	-1.455898878018058e-12	36.29182815551758	-0.2345946729183267	132.6241607666016	19.25637817382812	-0.5820936560630801	6.389527797698975	4.481640338897705	0.5820936560630805	-6.389527797698975	4.481640338897705	0.09438679367303905	-1.466455459594727	7.84662389755249	-0.09438679367303808	1.466455459594727	7.84662389755249	0	0	0	0	0	0	0	0	0	0	0	0	0	0	0	0	0	0	
59	0.3866666666666667	384.4005126953123	1440.344970703125	-1133.94140625	364.2501831054686	1420.68017578125	-994.9161376953125	500.4030761718748	1441.060791015625	-1141.196044921875	512.9664306640623	1420.587646484375	-988.6036376953125	444.2601928710936	1274.668823242188	-964.9695434570312	446.2912597656249	1095.768676757812	-914.531005859375	428.4556884765624	1212.336059570312	-1095.59375	424.0317077636718	1159.144897460938	-1127.720336914062	543.189270019531	1178.201782226562	-933.64013671875	312.5519409179686	1262.742919921875	-1037.953369140625	219.2897338867186	1045.907592773438	-975.6132202148438	190.9478912353514	972.3467407226562	-965.4345703125	146.8414306640624	889.8978881835938	-979.7685546875	90.54158020019521	769.74755859375	-1023.224060058594	125.0552444458007	775.4749755859375	-1081.342041015625	78.57437133789051	717.5340576171875	-1110.051025390625	560.473937988281	1251.626342773438	-1061.738525390625	650.6146850585935	1078.030883789062	-1053.634155273438	704.9448242187498	959.3817749023438	-1032.271728515625	758.0979614257811	831.3812255859375	-1093.971801757812	778.3442382812499	751.4666748046875	-1106.239990234375	726.1398925781249	747.6209716796875	-1148.764526367188	771.8400268554686	701.3245239257812	-1190.784423828125	431.2424316406249	875.5775756835938	-915.1547241210938	279.1956787109374	870.87158203125	-1070.802734375	522.0894775390624	878.8934936523438	-1123.384033203125	244.195571899414	586.3552856445312	-1126.94873046875	232.2696685791015	474.5914916992188	-1078.165771484375	277.2066040039061	531.96044921875	-1201.993896484375	282.8541259765624	217.2635192871094	-1032.845947265625	342.2106323242187	148.2616729736328	-950.1771850585938	254.5213317871093	131.9853210449219	-1062.234008789062	367.7382507324218	41.72001266479494	-973.5902099609375	262.4099426269531	41.38426971435548	-1083.314697265625	593.1845092773436	607.9456787109375	-1132.108520507812	587.0972900390624	509.9200744628907	-1055.392944335938	583.2233886718749	534.81591796875	-1197.225463867188	587.6068725585936	266.7707824707032	-1088.618286132812	562.6885986328124	216.822494506836	-981.3963623046875	582.6066284179686	176.5801391601563	-1116.590698242188	500.2782287597656	44.9206237792969	-981.7883911132812	570.5797729492186	41.72882843017582	-1123.383422851562	268.6094360351562	433.3360900878906	-1147.529418945312	368.2128295898437	421.8078002929688	-1163.090087890625	304.6903991699218	49.62425613403322	-994.1983032226562	356.9246520996093	47.21850204467776	-1044.771362304688	466.6252746582031	424.7294921875001	-1164.054809570312	569.2044677734374	440.1558227539063	-1164.206176757812	490.7710266113281	52.90954208374026	-1062.641723632812	552.3245239257811	47.56253433227543	-1018.9970703125	425.1702575683593	875.4940795898438	-983.6972045898438	423.9438476562499	875.4635009765625	-989.3670043945312	419.5035095214843	875.306884765625	-982.470458984375	423.2760314941405	933.4732055664062	-983.6001586914062	318.4111328124999	427.5719604492188	-1155.309814453125	517.9149169921874	432.4426574707032	-1164.130493164062	330.8075256347656	48.42137908935549	-1019.48486328125	521.5477905273436	50.23603820800784	-1040.819458007812	356.9246520996093	47.21850204467776	-1044.771362304688	490.7710266113281	52.90954208374026	-1062.641723632812	225.969009399414	612.1497802734375	-1084.069091796875	603.4097900390624	624.5066528320312	-1116.354248046875	242.4503479003905	244.1987915039063	-1008.79541015625	613.8442382812499	243.6977081298828	-1039.07421875	0	0	0	0	0	0	0	0	0	0	0	0	355.7037353515624	783.0894165039062	-1043.593383789062	469.1777954101561	786.0128784179688	-1067.589111328125	-1.870849251747131	-12.21151828765869	-0.09588612616062153	1.870849251747131	12.21151828765869	-0.09588612616062175	13.09132671356202	-43.83990859985352	0.1841748952865593	8.939818382263185	-26.39988899230957	1.322224497795105	-3.716270446777343	5.776628017425537	18.55831909179688	-8.808234214782715	-10.09169769287109	13.60027027130127	2.371435880661015	-33.99946975708008	37.78708267211914	7.093813896179203	-30.8231315612793	33.1257438659668	1.258045077323915	-2.525954246520996	15.21939849853516	-0.4580692946910853	5.343920230865479	14.61630725860596	1.424416343881983e-14	-3.18055471858951e-15	-1.913302373455248e-15	-1.331857242087243e-14	-8.155273542216819e-31	-1.987846699118436e-16	9.217503538781238e-16	0	15.05332565307617	8.892968796772579e-16	0	14.52332019805908	-0.3764283955097211	7.850804805755615	-12.3591423034668	0.3764283955097196	-7.850804805755615	-12.3591423034668	2.954740285873413	5.885209560394287	4.307700634002686	-2.954740285873412	-5.885209560394287	4.307700634002686	19.12936782836914	-11.80159091949463	-9.432468414306642	4.739621853417889e-15	1.098881619379655e-12	38.44709777832031	-12.79462337493897	128.8129577636719	16.08475494384766	24.58195877075195	0.4237177968025223	-8.110924720764162	1.029230731808508e-15	-2.710627729218817e-12	36.28701400756836	-0.236024871468551	132.620849609375	19.24816703796387	-0.5888814926147463	6.385880470275879	4.51127815246582	0.5888814926147468	-6.385880470275879	4.51127815246582	0.105850867927075	-1.476409316062927	7.834159374237061	-0.105850867927074	1.476409316062927	7.834159374237061	0	0	0	0	0	0	0	0	0	0	0	0	0	0	0	0	0	0	
60	0.3933333333333334	384.4733581542967	1440.305541992188	-1134.074584960938	364.2976989746092	1420.66259765625	-995.0382690429688	500.475616455078	1441.033325195312	-1141.307250976562	513.0159912109373	1420.603515625	-988.7059326171875	444.3265686035155	1274.682373046875	-965.0679321289062	446.323272705078	1095.8046875	-914.542236328125	428.519561767578	1212.29638671875	-1095.654541015625	424.1009216308593	1159.074340820312	-1127.751831054688	543.2277832031248	1178.221801757812	-933.65869140625	312.6187133789061	1262.7392578125	-1038.06396484375	219.2997589111327	1045.947387695312	-975.6698608398438	190.963409423828	972.39453125	-965.4544677734375	146.8511352539061	889.94970703125	-979.7806396484375	90.57056427001943	769.7781372070312	-1023.204284667969	125.1030426025389	775.4755859375	-1081.306396484375	78.63246154785145	717.5263061523438	-1110.013671875	560.5360107421873	1251.60791015625	-1061.786865234375	650.6611328124998	1078.001953125	-1053.686645507812	704.9924316406248	959.347900390625	-1032.31982421875	758.1312255859374	831.3515625	-1094.012939453125	778.3615722656249	751.4328002929688	-1106.2783203125	726.1644897460936	747.5802001953125	-1148.78515625	771.8568725585936	701.26904296875	-1190.80712890625	431.2743835449218	875.55908203125	-915.1092529296875	279.2351684570311	870.8779296875	-1070.755493164062	522.1372070312499	878.8623657226562	-1123.320556640625	244.223648071289	586.3611450195312	-1126.9140625	232.2909545898437	474.5928955078125	-1078.136352539062	277.2349243164061	531.9699096679688	-1201.965087890625	282.8674621582031	217.2696075439453	-1032.830444335938	342.2238464355468	148.2610626220703	-950.1719360351562	254.5338897705078	131.9919586181641	-1062.227172851562	367.7486572265624	41.7154006958008	-973.6013793945312	262.4181823730468	41.37854385375978	-1083.31298828125	593.1823120117186	607.93115234375	-1132.091064453125	587.0961914062499	509.8930053710938	-1055.396484375	583.2105712890624	534.805908203125	-1197.215576171875	587.6036987304686	266.7628479003907	-1088.623657226562	562.6949462890624	216.8243103027344	-981.3965454101562	582.5857543945311	176.57373046875	-1116.6171875	500.2809753417968	44.9221115112305	-981.7821655273438	570.5665283203124	41.73000335693363	-1123.387939453125	268.5910949707031	433.3598937988281	-1147.562622070312	368.1957702636718	421.7955627441406	-1162.999267578125	304.6908264160156	49.62571716308596	-994.1942749023438	356.9276123046874	47.21921157836916	-1044.769165039062	466.6071777343749	424.7232055664063	-1164.023315429688	569.1912231445311	440.1439819335938	-1164.219360351562	490.7637939453124	52.90425491333011	-1062.641357421875	552.3230590820311	47.56020355224613	-1018.995544433594	425.206085205078	875.4768676757812	-983.64013671875	423.9801025390624	875.446533203125	-989.31005859375	419.5392150878905	875.2905883789062	-982.413818359375	423.3212890624999	933.456298828125	-983.5427856445312	318.3934326171874	427.5777282714844	-1155.281005859375	517.8992309570311	432.4335937500001	-1164.121337890625	330.8092041015624	48.42246246337893	-1019.481750488281	521.5434570312499	50.23222732543948	-1040.818481445312	356.9276123046874	47.21921157836916	-1044.769165039062	490.7637939453124	52.90425491333011	-1062.641357421875	225.9581909179687	612.2053833007812	-1084.160400390625	603.4137573242186	624.4900512695312	-1116.366088867188	242.4441528320312	244.1934356689453	-1008.7783203125	613.8337402343749	243.6924285888672	-1039.072265625	0	0	0	0	0	0	0	0	0	0	0	0	355.729278564453	783.0836791992188	-1043.541870117188	469.2054443359374	785.9895629882812	-1067.529663085938	-1.861896753311157	-12.20751571655273	-0.09618683159351338	1.861896753311157	12.20751571655273	-0.0961868315935136	13.08159160614014	-43.83694458007812	0.1897199451923362	8.941090583801271	-26.39373779296875	1.318810224533081	-3.714993238449096	5.843271732330322	18.56088447570801	-8.81098461151123	-10.06121826171875	13.6084566116333	2.42426705360413	-34.05341720581055	37.78618240356445	7.099518775939945	-30.84542465209961	33.13032913208008	1.256387948989869	-2.521102428436279	15.21546077728271	-0.4593631327152247	5.348564147949219	14.61878395080566	-1.386523054437141e-14	1.590277359294754e-15	3.727212577390703e-16	-4.67143964366667e-15	1.590277359294755e-15	-3.975693398236885e-16	9.216249782888594e-16	0	15.05127811431885	8.892795945471126e-16	0	14.52303791046143	-0.3918968141078962	7.85743236541748	-12.37468528747559	0.3918968141078946	-7.85743236541748	-12.37468528747559	2.955672740936279	5.887124061584473	4.336728572845459	-2.955672740936278	-5.887124061584473	4.336728572845459	19.13168334960938	-11.78166961669922	-9.425779342651369	3.944705958860046e-15	2.385416083411362e-12	38.45073699951172	-12.79311180114747	128.8084716796875	16.08540534973145	24.58793640136719	0.4240266978740707	-8.080406188964846	-5.613507523438917e-16	8.937358774059601e-13	36.28204727172852	-0.2355699986219476	132.6253204345703	19.23876762390137	-0.5959782004356385	6.381075859069824	4.539683818817139	0.5959782004356392	-6.381075859069824	4.539683818817139	0.1168701276183134	-1.485751628875732	7.820757865905762	-0.1168701276183124	1.485751628875732	7.820757865905762	0	0	0	0	0	0	0	0	0	0	0	0	0	0	0	0	0	0	
